<svg width="400" height="300" xmlns="http://www.w3.org/2000/svg">
  <rect width="400" height="300" fill="#FFF8DC"/>
  
  <!-- Sun -->
  <circle cx="350" cy="50" r="30" fill="#FFD700" stroke="#FFA500" stroke-width="3"/>
  <line x1="350" y1="20" x2="350" y2="5" stroke="#FFA500" stroke-width="3"/>
  <line x1="380" y1="50" x2="395" y2="50" stroke="#FFA500" stroke-width="3"/>
  <line x1="370" y1="30" x2="382" y2="18" stroke="#FFA500" stroke-width="3"/>
  
  <!-- Ground -->
  <rect x="0" y="250" width="400" height="50" fill="#90EE90"/>
  
  <!-- Dad (left) -->
  <circle cx="100" cy="140" r="25" fill="#FFB6C1" stroke="#FF69B4" stroke-width="2"/>
  <rect x="85" y="165" width="30" height="50" fill="#4169E1" stroke="#000080" stroke-width="2"/>
  <line x1="85" y1="180" x2="70" y2="200" stroke="#4169E1" stroke-width="3"/>
  <line x1="115" y1="180" x2="130" y2="200" stroke="#4169E1" stroke-width="3"/>
  <line x1="85" y1="215" x2="85" y2="245" stroke="#8B4513" stroke-width="3"/>
  <line x1="115" y1="215" x2="115" y2="245" stroke="#8B4513" stroke-width="3"/>
  <circle cx="95" cy="135" r="2" fill="#000"/>
  <circle cx="105" cy="135" r="2" fill="#000"/>
  <path d="M 95 145 Q 100 150 105 145" stroke="#000" fill="none" stroke-width="2"/>
  
  <!-- Mom (right) -->
  <circle cx="200" cy="140" r="25" fill="#FFB6C1" stroke="#FF69B4" stroke-width="2"/>
  <rect x="185" y="165" width="30" height="50" fill="#FF69B4" stroke="#FF1493" stroke-width="2"/>
  <line x1="185" y1="180" x2="170" y2="200" stroke="#FF69B4" stroke-width="3"/>
  <line x1="215" y1="180" x2="230" y2="200" stroke="#FF69B4" stroke-width="3"/>
  <line x1="185" y1="215" x2="185" y2="245" stroke="#8B4513" stroke-width="3"/>
  <line x1="215" y1="215" x2="215" y2="245" stroke="#8B4513" stroke-width="3"/>
  <circle cx="195" cy="135" r="2" fill="#000"/>
  <circle cx="205" cy="135" r="2" fill="#000"/>
  <path d="M 195 145 Q 200 150 205 145" stroke="#000" fill="none" stroke-width="2"/>
  
  <!-- Child (middle) -->
  <circle cx="150" cy="180" r="20" fill="#FFB6C1" stroke="#FF69B4" stroke-width="2"/>
  <rect x="138" y="200" width="24" height="35" fill="#FFD700" stroke="#FFA500" stroke-width="2"/>
  <line x1="138" y1="210" x2="125" y2="225" stroke="#FFD700" stroke-width="3"/>
  <line x1="162" y1="210" x2="175" y2="225" stroke="#FFD700" stroke-width="3"/>
  <line x1="138" y1="235" x2="138" y2="250" stroke="#8B4513" stroke-width="3"/>
  <line x1="162" y1="235" x2="162" y2="250" stroke="#8B4513" stroke-width="3"/>
  <circle cx="145" cy="177" r="2" fill="#000"/>
  <circle cx="155" cy="177" r="2" fill="#000"/>
  <path d="M 145 185 Q 150 188 155 185" stroke="#000" fill="none" stroke-width="2"/>
  
  <!-- Hearts -->
  <text x="120" y="120" font-size="24" fill="#FF1493">♥</text>
  <text x="170" y="120" font-size="24" fill="#FF1493">♥</text>
  
  <!-- Title -->
  <text x="150" y="290" font-family="Comic Sans MS, cursive" font-size="20" fill="#663399" text-anchor="middle">My Family!</text>
</svg>
